<svg width="114" height="25" viewBox="0 0 114 25" fill="none" xmlns="http://www.w3.org/2000/svg">
<path d="M41.5836 18.4999V5.15994H39.2036L35.0436 15.1999L30.9036 5.15994H28.5236V18.4999H30.1836V7.51994L34.7036 18.4999H35.3836L39.9236 7.51994V18.4999H41.5836ZM44.0955 22.2799C44.3755 22.3599 44.8755 22.4199 45.1955 22.4199C46.4755 22.3999 47.4555 21.8599 48.0355 20.4599L52.8755 8.83994H51.2355L48.0355 16.7599L44.8155 8.83994H43.1955L47.2355 18.5999L46.5955 20.0599C46.2555 20.8599 45.8155 21.0799 45.1555 21.0799C44.9155 21.0799 44.5555 21.0199 44.3355 20.9199L44.0955 22.2799ZM64.3564 18.7399C66.8964 18.7399 68.6564 16.7799 68.6564 13.6599C68.6564 10.5199 66.8964 8.59994 64.3564 8.59994C62.9964 8.59994 61.7964 9.29994 61.0964 10.2799V8.83994H59.5964V22.1799H61.0964V17.0399C61.8764 18.1199 63.0364 18.7399 64.3564 18.7399ZM63.9764 17.3999C62.7964 17.3999 61.6164 16.6799 61.0964 15.8399V11.4799C61.6164 10.6399 62.7964 9.93994 63.9764 9.93994C65.9164 9.93994 67.0764 11.5199 67.0764 13.6599C67.0764 15.7999 65.9164 17.3999 63.9764 17.3999ZM72.5417 18.4999V11.6599C72.9817 10.8799 74.2417 10.1199 75.1617 10.1199C75.4017 10.1199 75.5817 10.1399 75.7617 10.1799V8.63994C74.4417 8.63994 73.3217 9.37994 72.5417 10.3999V8.83994H71.0417V18.4999H72.5417ZM81.8633 18.7399C84.8033 18.7399 86.6433 16.4599 86.6433 13.6599C86.6433 10.8599 84.8033 8.59994 81.8633 8.59994C78.9233 8.59994 77.0833 10.8599 77.0833 13.6599C77.0833 16.4599 78.9233 18.7399 81.8633 18.7399ZM81.8633 17.3999C79.8033 17.3999 78.6433 15.6399 78.6433 13.6599C78.6433 11.6999 79.8033 9.93994 81.8633 9.93994C83.9233 9.93994 85.0633 11.6999 85.0633 13.6599C85.0633 15.6399 83.9233 17.3999 81.8633 17.3999ZM91.0086 18.4999V10.1599H92.9686V8.83994H91.0086V8.09994C91.0086 6.87994 91.5486 6.19994 92.5286 6.19994C92.9086 6.19994 93.1686 6.29994 93.3886 6.43994L93.7686 5.29994C93.3886 5.05994 92.8686 4.95994 92.3086 4.95994C90.6286 4.95994 89.5086 6.09994 89.5086 8.09994V8.83994H87.9086V10.1599H89.5086V18.4999H91.0086ZM95.4886 7.45994C96.0486 7.45994 96.5086 7.01994 96.5086 6.45994C96.5086 5.89994 96.0486 5.43994 95.4886 5.43994C94.9486 5.43994 94.4886 5.89994 94.4886 6.45994C94.4886 7.01994 94.9486 7.45994 95.4886 7.45994ZM96.2486 18.4999V8.83994H94.7486V18.4999H96.2486ZM100.764 18.4999V5.15994H99.2644V18.4999H100.764ZM108.117 18.7399C109.697 18.7399 110.997 18.2199 111.957 17.2599L111.237 16.2799C110.477 17.0599 109.357 17.4999 108.257 17.4999C106.177 17.4999 104.897 15.9799 104.777 14.1599H112.597V13.7799C112.597 10.8799 110.877 8.59994 107.957 8.59994C105.197 8.59994 103.197 10.8599 103.197 13.6599C103.197 16.6799 105.257 18.7399 108.117 18.7399ZM111.117 13.0599H104.777C104.857 11.5799 105.877 9.83994 107.937 9.83994C110.137 9.83994 111.097 11.6199 111.117 13.0599Z" fill="#262626"/>
<path fill-rule="evenodd" clip-rule="evenodd" d="M20.2882 19.1786C19.8048 17.8903 19.0636 16.7143 18.11 15.7228C17.1564 14.7313 16.0105 13.9451 14.7426 13.4124C15.4321 12.8457 15.9889 12.1344 16.3737 11.3288C16.7585 10.5232 16.9619 9.6428 16.9696 8.7499C16.9447 7.18505 16.3412 5.68497 15.2756 4.53943C14.2101 3.39389 12.7582 2.68416 11.2004 2.5474C10.6902 2.48412 10.1742 2.48412 9.66409 2.5474C8.10715 2.68533 6.65642 3.39557 5.59194 4.54099C4.52745 5.68642 3.92464 7.18583 3.89985 8.7499C3.90726 9.64285 4.11057 10.5233 4.49539 11.3289C4.88021 12.1346 5.43717 12.8459 6.12687 13.4124C4.85868 13.9449 3.71252 14.731 2.7587 15.7225C1.80488 16.714 1.06348 17.8901 0.579971 19.1786C0.443583 19.5554 0.403094 19.9602 0.46219 20.3565C0.521285 20.7528 0.678098 21.1281 0.91845 21.4486C1.16786 21.7778 1.49056 22.0442 1.86089 22.2267C2.23123 22.4092 2.639 22.5027 3.05178 22.4999H17.8264C18.2388 22.5026 18.6462 22.4091 19.0161 22.2266C19.386 22.0441 19.7083 21.7777 19.9572 21.4486C20.197 21.1278 20.3528 20.7521 20.4106 20.3557C20.4684 19.9593 20.4263 19.5546 20.2882 19.1786ZM6.51406 8.7499C6.53133 7.8021 6.90146 6.89487 7.55203 6.20588C8.20259 5.51688 9.08671 5.09573 10.0313 5.02489C10.3005 4.99155 10.5727 4.99155 10.8419 5.02489C11.5523 5.13389 12.2166 5.44447 12.756 5.91978C13.2954 6.39508 13.6873 7.01519 13.8852 7.70662C14.0832 8.39804 14.0789 9.13176 13.8729 9.82083C13.6669 10.5099 13.2678 11.1254 12.7229 11.5944C12.1781 12.0634 11.5102 12.3662 10.7986 12.4669C10.087 12.5676 9.36147 12.462 8.708 12.1626C8.05453 11.8633 7.50056 11.3827 7.1117 10.7778C6.72285 10.1729 6.51544 9.46914 6.51406 8.7499ZM3.04927 19.9999C3.6412 18.5237 4.66114 17.2587 5.97772 16.3677C7.2943 15.4767 8.84727 15.0006 10.4366 15.0006C12.0259 15.0006 13.5789 15.4767 14.8955 16.3677C16.212 17.2587 17.232 18.5237 17.8239 19.9999H3.05178H3.04927Z" fill="#22262A"/>
</svg>
