<svg width="52" height="24" viewBox="0 0 52 24" fill="none" xmlns="http://www.w3.org/2000/svg">
<path d="M7.88818 18.24C11.5082 18.24 13.3282 16.12 13.3282 12.8V4.66H11.6682V12.78C11.6682 15.22 10.3482 16.76 7.88818 16.76C5.42818 16.76 4.10818 15.22 4.10818 12.78V4.66H2.44818V12.82C2.44818 16.1 4.26818 18.24 7.88818 18.24ZM20.7721 18.24C24.3721 18.24 25.6921 16.26 25.6921 14.32C25.6921 9.34 17.7921 11.06 17.7921 8.06C17.7921 6.8 18.9321 5.94 20.5321 5.94C21.9921 5.94 23.3921 6.44 24.3921 7.54L25.3921 6.32C24.2721 5.14 22.6921 4.46 20.6521 4.46C18.0321 4.46 16.0721 5.96 16.0721 8.16C16.0721 12.92 23.9721 11.02 23.9721 14.46C23.9721 15.48 23.2121 16.76 20.8321 16.76C18.9521 16.76 17.5121 15.84 16.6321 14.86L15.6521 16.12C16.7521 17.36 18.4521 18.24 20.7721 18.24ZM32.7308 18C36.8708 18 39.5708 15.14 39.5708 11.34C39.5708 7.56 36.8708 4.66 32.7308 4.66H28.1708V18H32.7308ZM32.7308 16.52H29.8308V6.14H32.7308C36.0308 6.14 37.8508 8.46 37.8508 11.34C37.8508 14.2 35.9708 16.52 32.7308 16.52Z" fill="#22262A"/>
<path d="M48.4062 15L45.0732 11H51.7402L48.4062 15Z" fill="#22262A"/>
</svg>
